<svg
   dc="http://purl.org/dc/elements/1.1/"
   cc="http://creativecommons.org/ns#"
   rdf="http://www.w3.org/1999/02/22-rdf-syntax-ns#"
   svg="http://www.w3.org/2000/svg"
   xmlns="http://www.w3.org/2000/svg"
   sodipodi="http://sodipodi.sourceforge.net/DTD/sodipodi-0.dtd"
   inkscape="http://www.inkscape.org/namespaces/inkscape"
   width="48pt"
   height="48pt"
   viewBox="0 0 16.933334 16.933333"
   id="svg979"
   version="0.92.4 (5da689c313, 2019-01-14)"
   docname="11 - Business Network.svg"
   export-filename="E:\TR Design Studio Creative\Project Design\TR Creative Design\Icon Design\Project Hiring\Icon Icons\003 - Business And Finance\Line\Export\10 - Money Bag.png"
   export-xdpi="768"
   export-ydpi="768">
  <defs
  
     id="defs973" />
  <namedview
     id="base"
     pagecolor="#ffffff"
     bordercolor="#666666"
     borderopacity="1.0"
     pageopacity="0.0"
     pageshadow="2"
     zoom="8.546875"
     cx="32"
     cy="32"
     document-units="pt"
     current-layer="layer1"
     showgrid="false"
     units="pt"
     window-width="1366"
     window-height="716"
     window-x="-8"
     window-y="-8"
     window-maximized="1"
     snap-bbox="true"
     bbox-nodes="true"
     snap-nodes="false"
     showguides="false">
    <grid
       type="xygrid"
       id="grid1526" />
    <sguide
       position="0.97013909,15.963209"
       orientation="56.666615,0"
       id="guide1528"
       locked="false" />
    <guide
       position="0.97013909,0.97016731"
       orientation="0,56.666667"
       id="guide1530"
       locked="false" />
    <guide
       position="15.963195,0.97016731"
       orientation="-56.666615,0"
       id="guide1532"
       locked="false" />
    <guide
       position="15.963195,15.963209"
       orientation="0,-56.666667"
       id="guide1534"
       locked="false" />
  </namedview>
  <metadata
     id="metadata976">
    <RDF>
      <Work
         about="">
        <format>image/svg+xml</format>
        <type
           resource="http://purl.org/dc/dcmitype/StillImage" />
        <title></title>
      </Work>
    </RDF>
  </metadata>
  <g
     label="Layer 1"
     groupmode="layer"
     id="layer1"
     transform="translate(0,-280.06668)">
    <path
       style="color:#000000;font-style:normal;font-variant:normal;font-weight:normal;font-stretch:normal;font-size:medium;line-height:normal;font-family:sans-serif;font-variant-ligatures:normal;font-variant-position:normal;font-variant-caps:normal;font-variant-numeric:normal;font-variant-alternates:normal;font-feature-settings:normal;text-indent:0;text-align:start;text-decoration:none;text-decoration-line:none;text-decoration-style:solid;text-decoration-color:#000000;letter-spacing:normal;word-spacing:normal;text-transform:none;writing-mode:lr-tb;direction:ltr;text-orientation:mixed;dominant-baseline:auto;baseline-shift:baseline;text-anchor:start;white-space:normal;shape-padding:0;clip-rule:nonzero;display:inline;overflow:visible;visibility:visible;opacity:1;isolation:auto;mix-blend-mode:normal;color-interpolation:sRGB;color-interpolation-filters:linearRGB;solid-color:#000000;solid-opacity:1;vector-effect:none;fill:#000000;fill-opacity:1;fill-rule:nonzero;stroke:none;stroke-width:0.52916718;stroke-linecap:round;stroke-linejoin:round;stroke-miterlimit:4;stroke-dasharray:none;stroke-dashoffset:0;stroke-opacity:1;color-rendering:auto;image-rendering:auto;shape-rendering:auto;text-rendering:auto;enable-background:accumulate"
       d="m 10.086886,285.39917 c 0,0.10736 0.0059,0.21352 0.01722,0.31795 -0.6521063,-0.70379 -1.4992573,-1.24171 -2.4931648,-1.50803 -2.8099884,-0.75294 -5.7077202,0.91847 -6.4605148,3.72794 -0.75279459,2.80946 0.9211356,5.70566 3.731124,6.4586 2.4262181,0.6501 4.9127567,-0.51028 6.0321156,-2.64704 0.04726,0.0587 0.100123,0.11144 0.159612,0.1577 -0.09351,0.14759 -0.150035,0.32009 -0.150035,0.50566 0,0.14843 0.03782,0.28794 0.09959,0.41372 -0.288066,0.16574 -0.48586,0.47431 -0.48586,0.82743 0,0.52374 0.430119,0.95386 0.953847,0.95386 h 2.514869 c 0.523728,0 0.957045,-0.43012 0.957045,-0.95386 0,-0.14893 -0.03806,-0.28922 -0.100235,-0.41563 0.288332,-0.16492 0.486502,-0.47219 0.486502,-0.82552 0,-0.30541 -0.148849,-0.57687 -0.374775,-0.75273 0.09351,-0.14758 0.150039,-0.32009 0.150039,-0.50566 0,-0.28483 -0.130893,-0.53899 -0.331998,-0.71443 0.101137,-0.1468 0.172035,-0.33388 0.170469,-0.55482 -9.8e-4,-0.13445 -0.03041,-0.25465 -0.0747,-0.362 0.346648,-0.14457 0.594401,-0.488 0.594401,-0.88363 0,-0.4267 -0.289554,-0.78734 -0.679313,-0.90787 0.703101,-0.53727 1.160068,-1.38152 1.160068,-2.33164 0,-1.61889 -1.320534,-2.93944 -2.939435,-2.93944 -1.618899,0 -2.936881,1.32055 -2.936881,2.93944 z m 2.93689,-2.28439 c 1.265576,0 2.284387,1.01881 2.284387,2.28439 0,1.26559 -1.018811,2.28503 -2.284387,2.28503 -1.265581,0 -2.285029,-1.01944 -2.285029,-2.28503 0,-1.26558 1.019448,-2.28439 2.285029,-2.28439 z m -0.03831,0.19664 c -0.166841,0.0194 -0.291945,0.16215 -0.289222,0.33009 v 0.36584 h -0.314119 c -0.02975,-0.005 -0.06005,-0.006 -0.09002,-0.002 -0.166905,0.0194 -0.291963,0.16208 -0.289221,0.33008 -4.5e-5,0.004 -4.5e-5,0.006 0,0.01 v 1.03174 c 9.8e-4,0.18004 0.147495,0.32532 0.327526,0.32499 h 1.059196 v 0.38626 h -1.059195 c -0.436704,0 -0.436704,0.65505 0,0.65505 h 0.365834 v 0.36584 c 0,0.43663 0.655053,0.43663 0.655053,0 v -0.36584 h 0.365835 c 0.181028,3.2e-4 0.327862,-0.1465 0.327525,-0.32753 v -1.03877 c 3.28e-4,-0.18102 -0.146497,-0.32786 -0.327525,-0.32752 H 12.65794 v -0.38626 h 1.059193 c 0.436704,0 0.436704,-0.65506 0,-0.65506 h -0.365836 v -0.36584 c 0.0033,-0.19816 -0.169056,-0.3537 -0.365833,-0.33008 z m -6.9253119,1.37205 c 0.2082443,-0.009 0.418682,0.004 0.6301559,0.0242 -0.7737907,0.53153 -1.4224942,1.09726 -1.9389845,1.69893 l -1.6855183,-0.4514 c 0.8035179,-0.76294 1.864542,-1.22746 2.9943469,-1.27179 z m 2.1981972,0.4616 c 1.1927406,0.57478 2.0533557,1.62327 2.4159107,2.84815 L 9.0774879,287.56544 C 8.9321272,286.7923 8.6575964,285.98507 8.2583513,285.14507 Z m -1.2200848,0.1149 -0.4398938,1.64146 -1.1358098,-0.30455 c 0.4327349,-0.46146 0.9536774,-0.90797 1.5757036,-1.33691 z m 0.6327087,0.17046 c 0.3240511,0.68223 0.5512876,1.32893 0.6952755,1.94473 l -1.1351744,-0.30454 z m -5.0980568,1.06813 1.7442569,0.46735 c -0.2888287,0.41451 -0.5180135,0.84524 -0.6844226,1.29287 l -1.7474494,-0.46926 c 0.1641764,-0.47509 0.3964339,-0.90913 0.6876131,-1.29096 z m 2.4191016,0.64804 1.4371617,0.38499 -0.3690276,1.37906 -1.7940552,-0.4814 C 4.436362,287.9893 4.6779358,287.56167 4.99202,287.1466 Z m 2.0698706,0.55482 1.4371584,0.38498 c 0.064515,0.5171 0.060014,1.00887 -0.012781,1.47547 l -1.7934141,-0.48139 z m 2.1120032,0.56567 1.6548732,0.44372 c 0.0656,0.48634 0.01694,1.01092 -0.05048,1.46653 l -1.6587041,-0.44501 c 0.080173,-0.4719 0.097268,-0.96066 0.054267,-1.46524 z m 2.8366532,0.0695 h 2.51487 c 0.172842,0 0.301989,0.12914 0.301989,0.30198 0,0.17284 -0.12915,0.30136 -0.301989,0.30136 h -0.524806 -1.99006 c -0.172842,0 -0.30199,-0.12849 -0.30199,-0.30136 0,-0.17284 0.129152,-0.30198 0.30199,-0.30198 z m -10.2950701,0.0855 1.7282951,0.46416 c -0.108945,0.46652 -0.153667,0.94604 -0.1302454,1.43908 l -1.6510373,-0.44234 c -0.060121,-0.47597 -0.043286,-0.9678 0.052992,-1.46079 z m 2.3578103,0.63334 1.8170386,0.48779 -0.3683869,1.37395 -1.5437828,-0.41372 c -0.044094,-0.50234 -0.011181,-0.9842 0.095131,-1.44802 z m 7.4373498,0.5395 h 2.48997 c 0.205649,0 0.307089,0.13862 0.307089,0.30199 0,0.16337 -0.09051,0.30199 -0.312204,0.30199 h -2.555731 c 0.03772,-0.2086 0.05384,-0.42342 0.07088,-0.60398 z m -4.9876024,0.11812 1.8170388,0.48778 c -0.1398134,0.45402 -0.3527943,0.88693 -0.6416461,1.29924 l -1.5431379,-0.4136 z m 2.446554,0.65696 1.6389114,0.4399 c -0.163091,0.47347 -0.393898,0.90609 -0.6831449,1.28713 l -1.5616594,-0.41878 c 0.2662146,-0.41439 0.4670156,-0.85077 0.6058909,-1.3082 z m -7.1538746,0.2324 1.5744254,0.42138 c 0.132635,0.78768 0.4256022,1.60587 0.8785125,2.45102 -1.2130105,-0.57242 -2.0884471,-1.63235 -2.4529342,-2.8724 z m 9.836658,0.249 h 2.51487 c 0.172843,0 0.301989,0.12912 0.301989,0.30199 0,0.17283 -0.12915,0.30199 -0.301989,0.30199 h -2.514866 c -0.172842,0 -0.299433,-0.12912 -0.299433,-0.30199 0,-0.17285 0.126584,-0.30199 0.299432,-0.30199 z m -7.5656792,0.35945 1.2660551,0.33902 -0.4577712,1.70722 c -0.395309,-0.71742 -0.6641551,-1.39882 -0.8082802,-2.04624 z m 1.898764,0.5082 1.2654145,0.33902 c -0.4485758,0.48878 -1.0219382,0.94444 -1.7231858,1.36821 z m 5.8948442,0.39074 h 2.51487 c 0.172843,0 0.301349,0.12912 0.301349,0.30199 0,0.17284 -0.12851,0.30199 -0.301349,0.30199 -0.863299,-0.0331 -1.640336,0 -2.51487,0 -0.137359,0 -0.301989,-0.0872 -0.301989,-0.30199 0,-0.21482 0.175925,-0.30199 0.301989,-0.30199 z m -3.9322387,0.13536 1.4850443,0.39775 c -0.9106001,0.86793 -2.1543647,1.35016 -3.452759,1.27308 0.8060056,-0.50236 1.4630251,-1.05987 1.9677147,-1.67083 z m 3.5884187,1.12111 h 2.469232 c 0.165399,0 0.30199,0.14263 0.30199,0.28667 0,0.17285 -0.12915,0.30199 -0.30199,0.30199 h -2.469232 c -0.172842,0 -0.344433,-0.0565 -0.344433,-0.29433 0,-0.23782 0.184992,-0.29433 0.344433,-0.29433 z"
       id="rect1162"
       connector-curvature="0"
       nodetypes="sccscccscsssscscscccscscsssssscccccccccccsscsscccccccsscccccccccccccccccccccccccccccccccccccccccsssscssscccccccccccczcccccccccccccccccccsssscccccccccccscczcccccccssszc" />
  </g>
</svg>
